<svg xmlns="http://www.w3.org/2000/svg" width="1200" height="635" viewBox="0 0 1200 635">
<rect width="100%" height="100%" fill="white"/>
<text x="600.0" y="34" text-anchor="middle" font-family="Arial,sans-serif" font-size="24" font-weight="700" fill="#222">Observed aircraft destruction fraction by manufacturer</text>
<text x="45" y="72" font-family="Arial,sans-serif" font-size="18" font-weight="700" fill="#222">Small aircraft</text>
<text x="45" y="121" font-family="Arial,sans-serif" font-size="13" fill="#222">LUSCOMBE</text><rect x="205" y="108" width="22.8" height="18" rx="2" fill="#4c72b0"/><text x="234.8" y="121" font-family="Arial,sans-serif" font-size="12" fill="#222">1.4%  n=138</text>
<text x="45" y="153" font-family="Arial,sans-serif" font-size="13" fill="#222">GRUMMAN ACFT ENG COR-SCHWEIZER</text><rect x="205" y="140" width="27.2" height="18" rx="2" fill="#4c72b0"/><text x="239.2" y="153" font-family="Arial,sans-serif" font-size="12" fill="#222">1.7%  n=58</text>
<text x="45" y="185" font-family="Arial,sans-serif" font-size="13" fill="#222">STINSON</text><rect x="205" y="172" width="36.6" height="18" rx="2" fill="#4c72b0"/><text x="248.6" y="185" font-family="Arial,sans-serif" font-size="12" fill="#222">2.3%  n=129</text>
<text x="45" y="217" font-family="Arial,sans-serif" font-size="13" fill="#222">TAYLORCRAFT</text><rect x="205" y="204" width="50.8" height="18" rx="2" fill="#4c72b0"/><text x="262.8" y="217" font-family="Arial,sans-serif" font-size="12" fill="#222">3.2%  n=93</text>
<text x="45" y="249" font-family="Arial,sans-serif" font-size="13" fill="#222">AERONCA</text><rect x="205" y="236" width="55.2" height="18" rx="2" fill="#4c72b0"/><text x="267.2" y="249" font-family="Arial,sans-serif" font-size="12" fill="#222">3.5%  n=200</text>
<text x="45" y="281" font-family="Arial,sans-serif" font-size="13" fill="#222">ERCOUPE</text><rect x="205" y="268" width="60.6" height="18" rx="2" fill="#4c72b0"/><text x="272.6" y="281" font-family="Arial,sans-serif" font-size="12" fill="#222">3.8%  n=52</text>
<text x="45" y="313" font-family="Arial,sans-serif" font-size="13" fill="#222">MAULE</text><rect x="205" y="300" width="66.0" height="18" rx="2" fill="#4c72b0"/><text x="278.0" y="313" font-family="Arial,sans-serif" font-size="12" fill="#222">4.2%  n=215</text>
<text x="45" y="345" font-family="Arial,sans-serif" font-size="13" fill="#222">AMERICAN CHAMPION</text><rect x="205" y="332" width="78.8" height="18" rx="2" fill="#4c72b0"/><text x="290.8" y="345" font-family="Arial,sans-serif" font-size="12" fill="#222">5.0%  n=60</text>
<text x="45" y="377" font-family="Arial,sans-serif" font-size="13" fill="#222">BELLANCA</text><rect x="205" y="364" width="79.5" height="18" rx="2" fill="#4c72b0"/><text x="291.5" y="377" font-family="Arial,sans-serif" font-size="12" fill="#222">5.0%  n=218</text>
<text x="45" y="409" font-family="Arial,sans-serif" font-size="13" fill="#222">DIAMOND</text><rect x="205" y="396" width="92.7" height="18" rx="2" fill="#4c72b0"/><text x="304.7" y="409" font-family="Arial,sans-serif" font-size="12" fill="#222">5.9%  n=136</text>
<text x="45" y="441" font-family="Arial,sans-serif" font-size="13" fill="#222">AVIAT</text><rect x="205" y="428" width="108.7" height="18" rx="2" fill="#4c72b0"/><text x="320.7" y="441" font-family="Arial,sans-serif" font-size="12" fill="#222">6.9%  n=145</text>
<text x="45" y="473" font-family="Arial,sans-serif" font-size="13" fill="#222">CHAMPION</text><rect x="205" y="460" width="120.4" height="18" rx="2" fill="#4c72b0"/><text x="332.4" y="473" font-family="Arial,sans-serif" font-size="12" fill="#222">7.6%  n=157</text>
<text x="45" y="505" font-family="Arial,sans-serif" font-size="13" fill="#222">CESSNA</text><rect x="205" y="492" width="152.0" height="18" rx="2" fill="#4c72b0"/><text x="364.0" y="505" font-family="Arial,sans-serif" font-size="12" fill="#222">9.6%  n=6977</text>
<text x="45" y="537" font-family="Arial,sans-serif" font-size="13" fill="#222">BOEING</text><rect x="205" y="524" width="170.3" height="18" rx="2" fill="#4c72b0"/><text x="382.3" y="537" font-family="Arial,sans-serif" font-size="12" fill="#222">10.8%  n=148</text>
<text x="45" y="569" font-family="Arial,sans-serif" font-size="13" fill="#222">PIPER</text><rect x="205" y="556" width="177.5" height="18" rx="2" fill="#4c72b0"/><text x="389.5" y="569" font-family="Arial,sans-serif" font-size="12" fill="#222">11.3%  n=3951</text>
<line x1="205" y1="584" x2="550" y2="584" stroke="#aaa"/><line x1="205" y1="97" x2="205" y2="584" stroke="#e5e5e5"/><line x1="291.25" y1="97" x2="291.25" y2="584" stroke="#e5e5e5"/><line x1="377.5" y1="97" x2="377.5" y2="584" stroke="#e5e5e5"/><line x1="463.75" y1="97" x2="463.75" y2="584" stroke="#e5e5e5"/><line x1="550" y1="97" x2="550" y2="584" stroke="#e5e5e5"/><text x="205" y="602" text-anchor="middle" font-family="Arial,sans-serif" font-size="11" fill="#555">0%</text><text x="291.25" y="602" text-anchor="middle" font-family="Arial,sans-serif" font-size="11" fill="#555">5%</text><text x="377.5" y="602" text-anchor="middle" font-family="Arial,sans-serif" font-size="11" fill="#555">11%</text><text x="463.75" y="602" text-anchor="middle" font-family="Arial,sans-serif" font-size="11" fill="#555">16%</text><text x="550" y="602" text-anchor="middle" font-family="Arial,sans-serif" font-size="11" fill="#555">22%</text><text x="377.5" y="625" text-anchor="middle" font-family="Arial,sans-serif" font-size="12" fill="#444">Observed destroyed fraction</text>
<text x="615" y="72" font-family="Arial,sans-serif" font-size="18" font-weight="700" fill="#222">Large aircraft</text>
<text x="615" y="121" font-family="Arial,sans-serif" font-size="13" fill="#222">BOMBARDIER</text><rect x="775" y="108" width="94.5" height="18" rx="2" fill="#4c72b0"/><text x="876.5" y="121" font-family="Arial,sans-serif" font-size="12" fill="#222">6.0%  n=50</text>
<text x="615" y="153" font-family="Arial,sans-serif" font-size="13" fill="#222">EMBRAER</text><rect x="775" y="140" width="140.1" height="18" rx="2" fill="#4c72b0"/><text x="922.1" y="153" font-family="Arial,sans-serif" font-size="12" fill="#222">8.9%  n=45</text>
<text x="615" y="185" font-family="Arial,sans-serif" font-size="13" fill="#222">BOEING</text><rect x="775" y="172" width="156.2" height="18" rx="2" fill="#4c72b0"/><text x="938.2" y="185" font-family="Arial,sans-serif" font-size="12" fill="#222">9.9%  n=333</text>
<text x="615" y="217" font-family="Arial,sans-serif" font-size="13" fill="#222">MCDONNELL DOUGLAS</text><rect x="775" y="204" width="234.7" height="18" rx="2" fill="#4c72b0"/><text x="1016.7" y="217" font-family="Arial,sans-serif" font-size="12" fill="#222">14.9%  n=47</text>
<text x="615" y="249" font-family="Arial,sans-serif" font-size="13" fill="#222">AIRBUS</text><rect x="775" y="236" width="269.5" height="18" rx="2" fill="#4c72b0"/><text x="1051.5" y="249" font-family="Arial,sans-serif" font-size="12" fill="#222">17.1%  n=76</text>
<line x1="775" y1="584" x2="1120" y2="584" stroke="#aaa"/><line x1="775" y1="97" x2="775" y2="584" stroke="#e5e5e5"/><line x1="861.25" y1="97" x2="861.25" y2="584" stroke="#e5e5e5"/><line x1="947.5" y1="97" x2="947.5" y2="584" stroke="#e5e5e5"/><line x1="1033.75" y1="97" x2="1033.75" y2="584" stroke="#e5e5e5"/><line x1="1120" y1="97" x2="1120" y2="584" stroke="#e5e5e5"/><text x="775" y="602" text-anchor="middle" font-family="Arial,sans-serif" font-size="11" fill="#555">0%</text><text x="861.25" y="602" text-anchor="middle" font-family="Arial,sans-serif" font-size="11" fill="#555">5%</text><text x="947.5" y="602" text-anchor="middle" font-family="Arial,sans-serif" font-size="11" fill="#555">11%</text><text x="1033.75" y="602" text-anchor="middle" font-family="Arial,sans-serif" font-size="11" fill="#555">16%</text><text x="1120" y="602" text-anchor="middle" font-family="Arial,sans-serif" font-size="11" fill="#555">22%</text><text x="947.5" y="625" text-anchor="middle" font-family="Arial,sans-serif" font-size="12" fill="#444">Observed destroyed fraction</text>
</svg>