<svg xmlns="http://www.w3.org/2000/svg" width="1200" height="635" viewBox="0 0 1200 635">
<rect width="100%" height="100%" fill="white"/>
<text x="600.0" y="34" text-anchor="middle" font-family="Arial,sans-serif" font-size="24" font-weight="700" fill="#222">Manufacturer injury severity in observed accidents</text>
<text x="45" y="72" font-family="Arial,sans-serif" font-size="18" font-weight="700" fill="#222">Small aircraft</text>
<text x="45" y="121" font-family="Arial,sans-serif" font-size="13" fill="#222">MAULE</text><rect x="205" y="108" width="152.7" height="18" rx="2" fill="#4c72b0"/><text x="364.7" y="121" font-family="Arial,sans-serif" font-size="12" fill="#222">16.5%  n=215</text>
<text x="45" y="153" font-family="Arial,sans-serif" font-size="13" fill="#222">BOEING</text><rect x="205" y="140" width="162.9" height="18" rx="2" fill="#4c72b0"/><text x="374.9" y="153" font-family="Arial,sans-serif" font-size="12" fill="#222">17.6%  n=165</text>
<text x="45" y="185" font-family="Arial,sans-serif" font-size="13" fill="#222">AVIAT</text><rect x="205" y="172" width="177.7" height="18" rx="2" fill="#4c72b0"/><text x="389.7" y="185" font-family="Arial,sans-serif" font-size="12" fill="#222">19.2%  n=146</text>
<text x="45" y="217" font-family="Arial,sans-serif" font-size="13" fill="#222">GRUMMAN ACFT ENG COR-SCHWEIZER</text><rect x="205" y="204" width="191.8" height="18" rx="2" fill="#4c72b0"/><text x="403.8" y="217" font-family="Arial,sans-serif" font-size="12" fill="#222">20.7%  n=58</text>
<text x="45" y="249" font-family="Arial,sans-serif" font-size="13" fill="#222">AYRES</text><rect x="205" y="236" width="199.9" height="18" rx="2" fill="#4c72b0"/><text x="411.9" y="249" font-family="Arial,sans-serif" font-size="12" fill="#222">21.6%  n=51</text>
<text x="45" y="281" font-family="Arial,sans-serif" font-size="13" fill="#222">STINSON</text><rect x="205" y="268" width="200.6" height="18" rx="2" fill="#4c72b0"/><text x="412.6" y="281" font-family="Arial,sans-serif" font-size="12" fill="#222">21.6%  n=129</text>
<text x="45" y="313" font-family="Arial,sans-serif" font-size="13" fill="#222">DIAMOND</text><rect x="205" y="300" width="201.6" height="18" rx="2" fill="#4c72b0"/><text x="413.6" y="313" font-family="Arial,sans-serif" font-size="12" fill="#222">21.8%  n=136</text>
<text x="45" y="345" font-family="Arial,sans-serif" font-size="13" fill="#222">BELLANCA</text><rect x="205" y="332" width="206.3" height="18" rx="2" fill="#4c72b0"/><text x="418.3" y="345" font-family="Arial,sans-serif" font-size="12" fill="#222">22.3%  n=219</text>
<text x="45" y="377" font-family="Arial,sans-serif" font-size="13" fill="#222">AERONCA</text><rect x="205" y="364" width="209.3" height="18" rx="2" fill="#4c72b0"/><text x="421.3" y="377" font-family="Arial,sans-serif" font-size="12" fill="#222">22.6%  n=200</text>
<text x="45" y="409" font-family="Arial,sans-serif" font-size="13" fill="#222">CHAMPION</text><rect x="205" y="396" width="241.5" height="18" rx="2" fill="#4c72b0"/><text x="453.5" y="409" font-family="Arial,sans-serif" font-size="12" fill="#222">26.1%  n=158</text>
<text x="45" y="441" font-family="Arial,sans-serif" font-size="13" fill="#222">AMERICAN CHAMPION</text><rect x="205" y="428" width="243.1" height="18" rx="2" fill="#4c72b0"/><text x="455.1" y="441" font-family="Arial,sans-serif" font-size="12" fill="#222">26.2%  n=61</text>
<text x="45" y="473" font-family="Arial,sans-serif" font-size="13" fill="#222">CESSNA</text><rect x="205" y="460" width="244.9" height="18" rx="2" fill="#4c72b0"/><text x="456.9" y="473" font-family="Arial,sans-serif" font-size="12" fill="#222">26.4%  n=7095</text>
<text x="45" y="505" font-family="Arial,sans-serif" font-size="13" fill="#222">LUSCOMBE</text><rect x="205" y="492" width="259.6" height="18" rx="2" fill="#4c72b0"/><text x="471.6" y="505" font-family="Arial,sans-serif" font-size="12" fill="#222">28.0%  n=141</text>
<text x="45" y="537" font-family="Arial,sans-serif" font-size="13" fill="#222">ROCKWELL</text><rect x="205" y="524" width="264.5" height="18" rx="2" fill="#4c72b0"/><text x="476.5" y="537" font-family="Arial,sans-serif" font-size="12" fill="#222">28.5%  n=99</text>
<text x="45" y="569" font-family="Arial,sans-serif" font-size="13" fill="#222">DE HAVILLAND</text><rect x="205" y="556" width="269.5" height="18" rx="2" fill="#4c72b0"/><text x="481.5" y="569" font-family="Arial,sans-serif" font-size="12" fill="#222">29.1%  n=158</text>
<line x1="205" y1="584" x2="550" y2="584" stroke="#aaa"/><line x1="205" y1="97" x2="205" y2="584" stroke="#e5e5e5"/><line x1="291.25" y1="97" x2="291.25" y2="584" stroke="#e5e5e5"/><line x1="377.5" y1="97" x2="377.5" y2="584" stroke="#e5e5e5"/><line x1="463.75" y1="97" x2="463.75" y2="584" stroke="#e5e5e5"/><line x1="550" y1="97" x2="550" y2="584" stroke="#e5e5e5"/><text x="205" y="602" text-anchor="middle" font-family="Arial,sans-serif" font-size="11" fill="#555">0%</text><text x="291.25" y="602" text-anchor="middle" font-family="Arial,sans-serif" font-size="11" fill="#555">9%</text><text x="377.5" y="602" text-anchor="middle" font-family="Arial,sans-serif" font-size="11" fill="#555">19%</text><text x="463.75" y="602" text-anchor="middle" font-family="Arial,sans-serif" font-size="11" fill="#555">28%</text><text x="550" y="602" text-anchor="middle" font-family="Arial,sans-serif" font-size="11" fill="#555">37%</text><text x="377.5" y="625" text-anchor="middle" font-family="Arial,sans-serif" font-size="12" fill="#444">Mean serious/fatal injury fraction</text>
<text x="615" y="72" font-family="Arial,sans-serif" font-size="18" font-weight="700" fill="#222">Large aircraft</text>
<text x="615" y="121" font-family="Arial,sans-serif" font-size="13" fill="#222">MCDONNELL DOUGLAS</text><rect x="775" y="108" width="44.1" height="18" rx="2" fill="#4c72b0"/><text x="826.1" y="121" font-family="Arial,sans-serif" font-size="12" fill="#222">4.8%  n=68</text>
<text x="615" y="153" font-family="Arial,sans-serif" font-size="13" fill="#222">BOMBARDIER</text><rect x="775" y="140" width="49.9" height="18" rx="2" fill="#4c72b0"/><text x="831.9" y="153" font-family="Arial,sans-serif" font-size="12" fill="#222">5.4%  n=71</text>
<text x="615" y="185" font-family="Arial,sans-serif" font-size="13" fill="#222">BOEING</text><rect x="775" y="172" width="57.6" height="18" rx="2" fill="#4c72b0"/><text x="839.6" y="185" font-family="Arial,sans-serif" font-size="12" fill="#222">6.2%  n=654</text>
<text x="615" y="217" font-family="Arial,sans-serif" font-size="13" fill="#222">EMBRAER</text><rect x="775" y="204" width="73.6" height="18" rx="2" fill="#4c72b0"/><text x="855.6" y="217" font-family="Arial,sans-serif" font-size="12" fill="#222">7.9%  n=83</text>
<text x="615" y="249" font-family="Arial,sans-serif" font-size="13" fill="#222">AIRBUS</text><rect x="775" y="236" width="78.7" height="18" rx="2" fill="#4c72b0"/><text x="860.7" y="249" font-family="Arial,sans-serif" font-size="12" fill="#222">8.5%  n=162</text>
<line x1="775" y1="584" x2="1120" y2="584" stroke="#aaa"/><line x1="775" y1="97" x2="775" y2="584" stroke="#e5e5e5"/><line x1="861.25" y1="97" x2="861.25" y2="584" stroke="#e5e5e5"/><line x1="947.5" y1="97" x2="947.5" y2="584" stroke="#e5e5e5"/><line x1="1033.75" y1="97" x2="1033.75" y2="584" stroke="#e5e5e5"/><line x1="1120" y1="97" x2="1120" y2="584" stroke="#e5e5e5"/><text x="775" y="602" text-anchor="middle" font-family="Arial,sans-serif" font-size="11" fill="#555">0%</text><text x="861.25" y="602" text-anchor="middle" font-family="Arial,sans-serif" font-size="11" fill="#555">9%</text><text x="947.5" y="602" text-anchor="middle" font-family="Arial,sans-serif" font-size="11" fill="#555">19%</text><text x="1033.75" y="602" text-anchor="middle" font-family="Arial,sans-serif" font-size="11" fill="#555">28%</text><text x="1120" y="602" text-anchor="middle" font-family="Arial,sans-serif" font-size="11" fill="#555">37%</text><text x="947.5" y="625" text-anchor="middle" font-family="Arial,sans-serif" font-size="12" fill="#444">Mean serious/fatal injury fraction</text>
</svg>