<svg xmlns="http://www.w3.org/2000/svg" width="1300" height="475" viewBox="0 0 1300 475">
<rect width="100%" height="100%" fill="white"/>
<text x="650.0" y="34" text-anchor="middle" font-family="Arial,sans-serif" font-size="24" font-weight="700" fill="#222">Recommended plane types: observed serious/fatal injury fraction</text>
<text x="45" y="72" font-family="Arial,sans-serif" font-size="18" font-weight="700" fill="#222">Small aircraft</text>
<text x="45" y="121" font-family="Arial,sans-serif" font-size="13" fill="#222">CESSNA 172SP</text><rect x="205" y="108" width="0" height="18" rx="2" fill="#4c72b0"/><text x="212" y="121" font-family="Arial,sans-serif" font-size="12" fill="#222">0.0%  n=12</text>
<text x="45" y="153" font-family="Arial,sans-serif" font-size="13" fill="#222">DIAMOND DA 20 C1</text><rect x="205" y="140" width="0" height="18" rx="2" fill="#4c72b0"/><text x="212" y="153" font-family="Arial,sans-serif" font-size="12" fill="#222">0.0%  n=11</text>
<text x="45" y="185" font-family="Arial,sans-serif" font-size="13" fill="#222">MAULE M-5-210C</text><rect x="205" y="172" width="0" height="18" rx="2" fill="#4c72b0"/><text x="212" y="185" font-family="Arial,sans-serif" font-size="12" fill="#222">0.0%  n=11</text>
<text x="45" y="217" font-family="Arial,sans-serif" font-size="13" fill="#222">CESSNA 180J</text><rect x="205" y="204" width="76.2" height="18" rx="2" fill="#4c72b0"/><text x="288.2" y="217" font-family="Arial,sans-serif" font-size="12" fill="#222">3.6%  n=28</text>
<text x="45" y="249" font-family="Arial,sans-serif" font-size="13" fill="#222">CESSNA A185E</text><rect x="205" y="236" width="83.0" height="18" rx="2" fill="#4c72b0"/><text x="295" y="249" font-family="Arial,sans-serif" font-size="12" fill="#222">3.9%  n=18</text>
<text x="45" y="281" font-family="Arial,sans-serif" font-size="13" fill="#222">PIPER PA-20</text><rect x="205" y="268" width="85.4" height="18" rx="2" fill="#4c72b0"/><text x="297.4" y="281" font-family="Arial,sans-serif" font-size="12" fill="#222">4.0%  n=25</text>
<text x="45" y="313" font-family="Arial,sans-serif" font-size="13" fill="#222">BEECH B19</text><rect x="205" y="300" width="88.9" height="18" rx="2" fill="#4c72b0"/><text x="300.9" y="313" font-family="Arial,sans-serif" font-size="12" fill="#222">4.2%  n=16</text>
<text x="45" y="345" font-family="Arial,sans-serif" font-size="13" fill="#222">CESSNA 560XL</text><rect x="205" y="332" width="101.6" height="18" rx="2" fill="#4c72b0"/><text x="313.6" y="345" font-family="Arial,sans-serif" font-size="12" fill="#222">4.8%  n=21</text>
<text x="45" y="377" font-family="Arial,sans-serif" font-size="13" fill="#222">CESSNA 180H</text><rect x="205" y="364" width="104.6" height="18" rx="2" fill="#4c72b0"/><text x="316.6" y="377" font-family="Arial,sans-serif" font-size="12" fill="#222">4.9%  n=34</text>
<text x="45" y="409" font-family="Arial,sans-serif" font-size="13" fill="#222">CESSNA 195</text><rect x="205" y="396" width="105.7" height="18" rx="2" fill="#4c72b0"/><text x="317.7" y="409" font-family="Arial,sans-serif" font-size="12" fill="#222">5.0%  n=37</text>
<line x1="205" y1="424" x2="600" y2="424" stroke="#aaa"/><line x1="205" y1="97" x2="205" y2="424" stroke="#e5e5e5"/><line x1="303.75" y1="97" x2="303.75" y2="424" stroke="#e5e5e5"/><line x1="402.5" y1="97" x2="402.5" y2="424" stroke="#e5e5e5"/><line x1="501.25" y1="97" x2="501.25" y2="424" stroke="#e5e5e5"/><line x1="600" y1="97" x2="600" y2="424" stroke="#e5e5e5"/><text x="205" y="442" text-anchor="middle" font-family="Arial,sans-serif" font-size="11" fill="#555">0%</text><text x="303.75" y="442" text-anchor="middle" font-family="Arial,sans-serif" font-size="11" fill="#555">5%</text><text x="402.5" y="442" text-anchor="middle" font-family="Arial,sans-serif" font-size="11" fill="#555">9%</text><text x="501.25" y="442" text-anchor="middle" font-family="Arial,sans-serif" font-size="11" fill="#555">14%</text><text x="600" y="442" text-anchor="middle" font-family="Arial,sans-serif" font-size="11" fill="#555">19%</text><text x="402.5" y="465" text-anchor="middle" font-family="Arial,sans-serif" font-size="12" fill="#444">Mean serious/fatal injury fraction</text>
<text x="665" y="72" font-family="Arial,sans-serif" font-size="18" font-weight="700" fill="#222">Large aircraft</text>
<text x="665" y="121" font-family="Arial,sans-serif" font-size="13" fill="#222">BOEING 777</text><rect x="825" y="108" width="1.4" height="18" rx="2" fill="#4c72b0"/><text x="833.4" y="121" font-family="Arial,sans-serif" font-size="12" fill="#222">0.1%  n=41</text>
<text x="665" y="153" font-family="Arial,sans-serif" font-size="13" fill="#222">BOMBARDIER CL-600-2B19</text><rect x="825" y="140" width="7.8" height="18" rx="2" fill="#4c72b0"/><text x="839.8" y="153" font-family="Arial,sans-serif" font-size="12" fill="#222">0.4%  n=17</text>
<text x="665" y="185" font-family="Arial,sans-serif" font-size="13" fill="#222">BOEING 757</text><rect x="825" y="172" width="95.3" height="18" rx="2" fill="#4c72b0"/><text x="927.3" y="185" font-family="Arial,sans-serif" font-size="12" fill="#222">4.5%  n=23</text>
<text x="665" y="217" font-family="Arial,sans-serif" font-size="13" fill="#222">BOEING 747</text><rect x="825" y="204" width="130.1" height="18" rx="2" fill="#4c72b0"/><text x="962.1" y="217" font-family="Arial,sans-serif" font-size="12" fill="#222">6.1%  n=37</text>
<text x="665" y="249" font-family="Arial,sans-serif" font-size="13" fill="#222">BOEING 737</text><rect x="825" y="236" width="174.2" height="18" rx="2" fill="#4c72b0"/><text x="1006.2" y="249" font-family="Arial,sans-serif" font-size="12" fill="#222">8.2%  n=199</text>
<text x="665" y="281" font-family="Arial,sans-serif" font-size="13" fill="#222">BOEING 767</text><rect x="825" y="268" width="179.9" height="18" rx="2" fill="#4c72b0"/><text x="1011.9" y="281" font-family="Arial,sans-serif" font-size="12" fill="#222">8.4%  n=41</text>
<text x="665" y="313" font-family="Arial,sans-serif" font-size="13" fill="#222">AIRBUS A320</text><rect x="825" y="300" width="308.6" height="18" rx="2" fill="#4c72b0"/><text x="1140.6" y="313" font-family="Arial,sans-serif" font-size="12" fill="#222">14.5%  n=28</text>
<line x1="825" y1="424" x2="1220" y2="424" stroke="#aaa"/><line x1="825" y1="97" x2="825" y2="424" stroke="#e5e5e5"/><line x1="923.75" y1="97" x2="923.75" y2="424" stroke="#e5e5e5"/><line x1="1022.5" y1="97" x2="1022.5" y2="424" stroke="#e5e5e5"/><line x1="1121.25" y1="97" x2="1121.25" y2="424" stroke="#e5e5e5"/><line x1="1220" y1="97" x2="1220" y2="424" stroke="#e5e5e5"/><text x="825" y="442" text-anchor="middle" font-family="Arial,sans-serif" font-size="11" fill="#555">0%</text><text x="923.75" y="442" text-anchor="middle" font-family="Arial,sans-serif" font-size="11" fill="#555">5%</text><text x="1022.5" y="442" text-anchor="middle" font-family="Arial,sans-serif" font-size="11" fill="#555">9%</text><text x="1121.25" y="442" text-anchor="middle" font-family="Arial,sans-serif" font-size="11" fill="#555">14%</text><text x="1220" y="442" text-anchor="middle" font-family="Arial,sans-serif" font-size="11" fill="#555">19%</text><text x="1022.5" y="465" text-anchor="middle" font-family="Arial,sans-serif" font-size="12" fill="#444">Mean serious/fatal injury fraction</text>
</svg>